<mxfile host="app.diagrams.net" modified="2023-09-05T12:01:13.043Z" agent="Mozilla/5.0 (Windows NT 10.0; Win64; x64) AppleWebKit/537.36 (KHTML, like Gecko) Chrome/116.0.0.0 Safari/537.36" etag="1Ih3Dum7N4EmUm1lGvUq" version="21.7.2" type="github">
  <diagram name="Page-1" id="6z5pkEbWCsWtaveYas8e">
    <mxGraphModel dx="880" dy="1546" grid="1" gridSize="10" guides="1" tooltips="1" connect="1" arrows="1" fold="1" page="1" pageScale="1" pageWidth="850" pageHeight="1100" math="0" shadow="0">
      <root>
        <mxCell id="0" />
        <mxCell id="1" parent="0" />
        <mxCell id="nCKAAol2MyvEnsqoX74w-47" value="" style="rounded=0;whiteSpace=wrap;html=1;" vertex="1" parent="1">
          <mxGeometry x="40" y="410" width="520" height="300" as="geometry" />
        </mxCell>
        <mxCell id="nCKAAol2MyvEnsqoX74w-3" style="edgeStyle=orthogonalEdgeStyle;rounded=0;orthogonalLoop=1;jettySize=auto;html=1;entryX=0;entryY=0.5;entryDx=0;entryDy=0;" edge="1" parent="1" source="nCKAAol2MyvEnsqoX74w-1" target="nCKAAol2MyvEnsqoX74w-2">
          <mxGeometry relative="1" as="geometry" />
        </mxCell>
        <mxCell id="nCKAAol2MyvEnsqoX74w-21" value="Call API" style="edgeLabel;html=1;align=center;verticalAlign=middle;resizable=0;points=[];" vertex="1" connectable="0" parent="nCKAAol2MyvEnsqoX74w-3">
          <mxGeometry x="-0.1333" y="4" relative="1" as="geometry">
            <mxPoint as="offset" />
          </mxGeometry>
        </mxCell>
        <mxCell id="nCKAAol2MyvEnsqoX74w-1" value="Cron-job server" style="rounded=0;whiteSpace=wrap;html=1;fillColor=#f8cecc;strokeColor=#b85450;" vertex="1" parent="1">
          <mxGeometry x="270" y="90" width="120" height="60" as="geometry" />
        </mxCell>
        <mxCell id="nCKAAol2MyvEnsqoX74w-2" value="Main Server" style="rounded=0;whiteSpace=wrap;html=1;fillColor=#d5e8d4;strokeColor=#82b366;" vertex="1" parent="1">
          <mxGeometry x="450" y="90" width="120" height="60" as="geometry" />
        </mxCell>
        <mxCell id="nCKAAol2MyvEnsqoX74w-4" value="User" style="shape=umlActor;verticalLabelPosition=bottom;verticalAlign=top;html=1;outlineConnect=0;fillColor=#f5f5f5;fontColor=#333333;strokeColor=#666666;" vertex="1" parent="1">
          <mxGeometry x="670" y="90" width="30" height="60" as="geometry" />
        </mxCell>
        <mxCell id="nCKAAol2MyvEnsqoX74w-5" value="User" style="shape=umlActor;verticalLabelPosition=bottom;verticalAlign=top;html=1;outlineConnect=0;fillColor=#f5f5f5;fontColor=#333333;strokeColor=#666666;" vertex="1" parent="1">
          <mxGeometry x="670" width="30" height="60" as="geometry" />
        </mxCell>
        <mxCell id="nCKAAol2MyvEnsqoX74w-6" value="User" style="shape=umlActor;verticalLabelPosition=bottom;verticalAlign=top;html=1;outlineConnect=0;fillColor=#f5f5f5;fontColor=#333333;strokeColor=#666666;" vertex="1" parent="1">
          <mxGeometry x="670" y="190" width="30" height="60" as="geometry" />
        </mxCell>
        <mxCell id="nCKAAol2MyvEnsqoX74w-7" value="List todo" style="swimlane;whiteSpace=wrap;html=1;fillColor=#f5f5f5;fontColor=#333333;strokeColor=#666666;" vertex="1" parent="1">
          <mxGeometry x="60" y="50" width="130" height="130" as="geometry" />
        </mxCell>
        <mxCell id="nCKAAol2MyvEnsqoX74w-9" value="7h30: Tập thể dục" style="text;html=1;align=center;verticalAlign=middle;resizable=0;points=[];autosize=1;strokeColor=none;fillColor=none;" vertex="1" parent="nCKAAol2MyvEnsqoX74w-7">
          <mxGeometry y="25" width="120" height="30" as="geometry" />
        </mxCell>
        <mxCell id="nCKAAol2MyvEnsqoX74w-10" value="9h: Đến giờ học bài" style="text;html=1;align=center;verticalAlign=middle;resizable=0;points=[];autosize=1;strokeColor=none;fillColor=none;" vertex="1" parent="nCKAAol2MyvEnsqoX74w-7">
          <mxGeometry x="-5" y="55" width="130" height="30" as="geometry" />
        </mxCell>
        <mxCell id="nCKAAol2MyvEnsqoX74w-11" value="11h: Đón bạn gái" style="text;html=1;align=center;verticalAlign=middle;resizable=0;points=[];autosize=1;strokeColor=none;fillColor=none;" vertex="1" parent="nCKAAol2MyvEnsqoX74w-7">
          <mxGeometry x="5" y="85" width="110" height="30" as="geometry" />
        </mxCell>
        <mxCell id="nCKAAol2MyvEnsqoX74w-14" value="Database" style="shape=cylinder3;whiteSpace=wrap;html=1;boundedLbl=1;backgroundOutline=1;size=15;fillColor=#f5f5f5;fontColor=#333333;strokeColor=#666666;" vertex="1" parent="1">
          <mxGeometry x="480" y="-20" width="60" height="80" as="geometry" />
        </mxCell>
        <mxCell id="nCKAAol2MyvEnsqoX74w-15" value="" style="endArrow=classic;startArrow=classic;html=1;rounded=0;exitX=0.5;exitY=0;exitDx=0;exitDy=0;entryX=0.5;entryY=1;entryDx=0;entryDy=0;entryPerimeter=0;" edge="1" parent="1" source="nCKAAol2MyvEnsqoX74w-2" target="nCKAAol2MyvEnsqoX74w-14">
          <mxGeometry width="50" height="50" relative="1" as="geometry">
            <mxPoint x="400" y="70" as="sourcePoint" />
            <mxPoint x="450" y="20" as="targetPoint" />
          </mxGeometry>
        </mxCell>
        <mxCell id="nCKAAol2MyvEnsqoX74w-16" value="" style="endArrow=classic;html=1;rounded=0;exitX=1;exitY=0.5;exitDx=0;exitDy=0;entryX=0.5;entryY=0.5;entryDx=0;entryDy=0;entryPerimeter=0;" edge="1" parent="1" source="nCKAAol2MyvEnsqoX74w-2" target="nCKAAol2MyvEnsqoX74w-5">
          <mxGeometry width="50" height="50" relative="1" as="geometry">
            <mxPoint x="400" y="220" as="sourcePoint" />
            <mxPoint x="450" y="170" as="targetPoint" />
          </mxGeometry>
        </mxCell>
        <mxCell id="nCKAAol2MyvEnsqoX74w-25" value="send noti" style="edgeLabel;html=1;align=center;verticalAlign=middle;resizable=0;points=[];" vertex="1" connectable="0" parent="nCKAAol2MyvEnsqoX74w-16">
          <mxGeometry x="-0.2192" y="-3" relative="1" as="geometry">
            <mxPoint as="offset" />
          </mxGeometry>
        </mxCell>
        <mxCell id="nCKAAol2MyvEnsqoX74w-17" value="" style="endArrow=classic;html=1;rounded=0;exitX=1;exitY=0.5;exitDx=0;exitDy=0;entryX=0.5;entryY=0.5;entryDx=0;entryDy=0;entryPerimeter=0;" edge="1" parent="1" source="nCKAAol2MyvEnsqoX74w-2" target="nCKAAol2MyvEnsqoX74w-4">
          <mxGeometry width="50" height="50" relative="1" as="geometry">
            <mxPoint x="400" y="220" as="sourcePoint" />
            <mxPoint x="450" y="170" as="targetPoint" />
          </mxGeometry>
        </mxCell>
        <mxCell id="nCKAAol2MyvEnsqoX74w-26" value="send noti" style="edgeLabel;html=1;align=center;verticalAlign=middle;resizable=0;points=[];" vertex="1" connectable="0" parent="nCKAAol2MyvEnsqoX74w-17">
          <mxGeometry x="-0.0933" y="1" relative="1" as="geometry">
            <mxPoint as="offset" />
          </mxGeometry>
        </mxCell>
        <mxCell id="nCKAAol2MyvEnsqoX74w-18" value="" style="endArrow=classic;html=1;rounded=0;entryX=0.5;entryY=0.5;entryDx=0;entryDy=0;entryPerimeter=0;" edge="1" parent="1" target="nCKAAol2MyvEnsqoX74w-6">
          <mxGeometry width="50" height="50" relative="1" as="geometry">
            <mxPoint x="570" y="120" as="sourcePoint" />
            <mxPoint x="655" y="150" as="targetPoint" />
          </mxGeometry>
        </mxCell>
        <mxCell id="nCKAAol2MyvEnsqoX74w-27" value="send noti" style="edgeLabel;html=1;align=center;verticalAlign=middle;resizable=0;points=[];" vertex="1" connectable="0" parent="nCKAAol2MyvEnsqoX74w-18">
          <mxGeometry x="-0.1072" y="-1" relative="1" as="geometry">
            <mxPoint as="offset" />
          </mxGeometry>
        </mxCell>
        <mxCell id="nCKAAol2MyvEnsqoX74w-23" value="" style="endArrow=classic;html=1;rounded=0;entryX=0;entryY=0.5;entryDx=0;entryDy=0;" edge="1" parent="1" target="nCKAAol2MyvEnsqoX74w-1">
          <mxGeometry width="50" height="50" relative="1" as="geometry">
            <mxPoint x="190" y="120" as="sourcePoint" />
            <mxPoint x="450" y="170" as="targetPoint" />
          </mxGeometry>
        </mxCell>
        <mxCell id="nCKAAol2MyvEnsqoX74w-24" value="Read file" style="edgeLabel;html=1;align=center;verticalAlign=middle;resizable=0;points=[];" vertex="1" connectable="0" parent="nCKAAol2MyvEnsqoX74w-23">
          <mxGeometry x="-0.075" relative="1" as="geometry">
            <mxPoint as="offset" />
          </mxGeometry>
        </mxCell>
        <mxCell id="nCKAAol2MyvEnsqoX74w-45" style="edgeStyle=orthogonalEdgeStyle;rounded=0;orthogonalLoop=1;jettySize=auto;html=1;entryX=0;entryY=0.5;entryDx=0;entryDy=0;" edge="1" parent="1" source="nCKAAol2MyvEnsqoX74w-28" target="nCKAAol2MyvEnsqoX74w-44">
          <mxGeometry relative="1" as="geometry" />
        </mxCell>
        <mxCell id="nCKAAol2MyvEnsqoX74w-52" value="Call API" style="edgeLabel;html=1;align=center;verticalAlign=middle;resizable=0;points=[];" vertex="1" connectable="0" parent="nCKAAol2MyvEnsqoX74w-45">
          <mxGeometry x="-0.0909" y="2" relative="1" as="geometry">
            <mxPoint as="offset" />
          </mxGeometry>
        </mxCell>
        <mxCell id="nCKAAol2MyvEnsqoX74w-28" value="Handler" style="rounded=1;whiteSpace=wrap;html=1;fillColor=#f8cecc;strokeColor=#b85450;" vertex="1" parent="1">
          <mxGeometry x="420" y="470" width="120" height="60" as="geometry" />
        </mxCell>
        <mxCell id="nCKAAol2MyvEnsqoX74w-34" style="edgeStyle=orthogonalEdgeStyle;rounded=0;orthogonalLoop=1;jettySize=auto;html=1;" edge="1" parent="1" source="nCKAAol2MyvEnsqoX74w-29" target="nCKAAol2MyvEnsqoX74w-28">
          <mxGeometry relative="1" as="geometry" />
        </mxCell>
        <mxCell id="nCKAAol2MyvEnsqoX74w-29" value="Service&amp;nbsp;" style="rounded=1;whiteSpace=wrap;html=1;fillColor=#f8cecc;strokeColor=#b85450;" vertex="1" parent="1">
          <mxGeometry x="250" y="470" width="120" height="60" as="geometry" />
        </mxCell>
        <mxCell id="nCKAAol2MyvEnsqoX74w-33" style="edgeStyle=orthogonalEdgeStyle;rounded=0;orthogonalLoop=1;jettySize=auto;html=1;exitX=0.5;exitY=0;exitDx=0;exitDy=0;entryX=0.5;entryY=1;entryDx=0;entryDy=0;" edge="1" parent="1" source="nCKAAol2MyvEnsqoX74w-32" target="nCKAAol2MyvEnsqoX74w-29">
          <mxGeometry relative="1" as="geometry" />
        </mxCell>
        <mxCell id="nCKAAol2MyvEnsqoX74w-32" value="Main.go" style="rounded=1;whiteSpace=wrap;html=1;fillColor=#dae8fc;strokeColor=#6c8ebf;" vertex="1" parent="1">
          <mxGeometry x="250" y="570" width="120" height="60" as="geometry" />
        </mxCell>
        <mxCell id="nCKAAol2MyvEnsqoX74w-35" value="Config" style="rounded=1;whiteSpace=wrap;html=1;fillColor=#f8cecc;strokeColor=#b85450;" vertex="1" parent="1">
          <mxGeometry x="70" y="470" width="120" height="60" as="geometry" />
        </mxCell>
        <mxCell id="nCKAAol2MyvEnsqoX74w-37" value="List todo" style="swimlane;whiteSpace=wrap;html=1;fillColor=#f5f5f5;fontColor=#333333;strokeColor=#666666;" vertex="1" parent="1">
          <mxGeometry x="65" y="570" width="130" height="110" as="geometry" />
        </mxCell>
        <mxCell id="nCKAAol2MyvEnsqoX74w-38" value="7h30: Tập thể dục" style="text;html=1;align=center;verticalAlign=middle;resizable=0;points=[];autosize=1;strokeColor=none;fillColor=none;" vertex="1" parent="nCKAAol2MyvEnsqoX74w-37">
          <mxGeometry y="25" width="120" height="30" as="geometry" />
        </mxCell>
        <mxCell id="nCKAAol2MyvEnsqoX74w-39" value="9h: Đến giờ học bài" style="text;html=1;align=center;verticalAlign=middle;resizable=0;points=[];autosize=1;strokeColor=none;fillColor=none;" vertex="1" parent="nCKAAol2MyvEnsqoX74w-37">
          <mxGeometry x="-5" y="55" width="130" height="30" as="geometry" />
        </mxCell>
        <mxCell id="nCKAAol2MyvEnsqoX74w-40" value="11h: Đón bạn gái" style="text;html=1;align=center;verticalAlign=middle;resizable=0;points=[];autosize=1;strokeColor=none;fillColor=none;" vertex="1" parent="nCKAAol2MyvEnsqoX74w-37">
          <mxGeometry x="5" y="85" width="110" height="30" as="geometry" />
        </mxCell>
        <mxCell id="nCKAAol2MyvEnsqoX74w-44" value="Main server" style="rounded=1;whiteSpace=wrap;html=1;fillColor=#d5e8d4;strokeColor=#82b366;" vertex="1" parent="1">
          <mxGeometry x="650" y="470" width="120" height="60" as="geometry" />
        </mxCell>
        <mxCell id="nCKAAol2MyvEnsqoX74w-46" value="" style="endArrow=classic;startArrow=classic;html=1;rounded=0;exitX=1;exitY=0.5;exitDx=0;exitDy=0;entryX=0;entryY=0.5;entryDx=0;entryDy=0;" edge="1" parent="1" source="nCKAAol2MyvEnsqoX74w-35" target="nCKAAol2MyvEnsqoX74w-29">
          <mxGeometry width="50" height="50" relative="1" as="geometry">
            <mxPoint x="320" y="570" as="sourcePoint" />
            <mxPoint x="370" y="520" as="targetPoint" />
          </mxGeometry>
        </mxCell>
        <mxCell id="nCKAAol2MyvEnsqoX74w-48" value="Cron-job server&amp;nbsp;" style="text;html=1;strokeColor=none;fillColor=none;align=center;verticalAlign=middle;whiteSpace=wrap;rounded=0;" vertex="1" parent="1">
          <mxGeometry x="250" y="410" width="120" height="30" as="geometry" />
        </mxCell>
        <mxCell id="nCKAAol2MyvEnsqoX74w-49" value="" style="endArrow=classic;startArrow=classic;html=1;rounded=0;entryX=0.5;entryY=1;entryDx=0;entryDy=0;exitX=0.5;exitY=0;exitDx=0;exitDy=0;" edge="1" parent="1" source="nCKAAol2MyvEnsqoX74w-37" target="nCKAAol2MyvEnsqoX74w-35">
          <mxGeometry width="50" height="50" relative="1" as="geometry">
            <mxPoint x="320" y="570" as="sourcePoint" />
            <mxPoint x="370" y="520" as="targetPoint" />
          </mxGeometry>
        </mxCell>
        <mxCell id="nCKAAol2MyvEnsqoX74w-50" value="Read file" style="edgeLabel;html=1;align=center;verticalAlign=middle;resizable=0;points=[];" vertex="1" connectable="0" parent="nCKAAol2MyvEnsqoX74w-49">
          <mxGeometry x="-0.0333" relative="1" as="geometry">
            <mxPoint as="offset" />
          </mxGeometry>
        </mxCell>
      </root>
    </mxGraphModel>
  </diagram>
</mxfile>
